# xmcd CD database file
#
# Track frame offsets:
#	150
#	8092
#	31546
#	40474
#	55894
#	71319
#	94788
#	114825
#	137246
#	152147
#	178449
#	191160
#
# Disc length: 2737 seconds
#
# Revision: 0
# Processed by: cddbd v1.5.1PL2 Copyright (c) Steve Scherf et al.
# Submitted via: CDex 1.51
#
DISCID=9d0aaf0c
DTITLE=CATHERINE JAUNIAUX with TIM HODGKINSON - Fluvial
DYEAR=2005
DGENRE=New Age
TTITLE0=Dream
TTITLE1=Une Escadrille De Sorcieres
TTITLE2=Sweet Smell
TTITLE3=Doresc Trei Babys
TTITLE4=Copul's Humus
TTITLE5=Kebadaya
TTITLE6=Origine Des Femmes
TTITLE7=Tilimbom
TTITLE8=Chanson De La Fraternisation
TTITLE9=Divine Image, A
TTITLE10=Infant Sorrow
TTITLE11=Dancers Under The Hill, The
EXTD=YEAR: 2005
EXTT0=
EXTT1=
EXTT2=
EXTT3=
EXTT4=
EXTT5=
EXTT6=
EXTT7=
EXTT8=
EXTT9=
EXTT10=
EXTT11=
PLAYORDER=
